<svg xmlns="http://www.w3.org/2000/svg" viewBox="0 0 39.27 36.2"><defs><style>.cls-1{fill:#3b654e;}.cls-2{fill:#9dca96;}</style></defs><g id="Layer_2" data-name="Layer 2"><g id="Layer_1-2" data-name="Layer 1"><path class="cls-1" d="M19.2,17.6V32.22a13.08,13.08,0,0,1-.09,1.53,3,3,0,0,1-3.31,2.43A3.09,3.09,0,0,1,13,33.4a9.63,9.63,0,0,1,.64-4.84c.71-1.94,1.55-3.84,2.07-5.84a5.91,5.91,0,0,0-.26-4.37,5.13,5.13,0,0,0-1.89-2,12.77,12.77,0,0,0-5-1.6,35.13,35.13,0,0,1-5.65-1.05,4,4,0,0,1-2.85-5,2.93,2.93,0,0,1,4.22-2c1.79.92,3.47,2,5.22,3l8,4.56a5.81,5.81,0,0,1,1,.76,2.24,2.24,0,0,1,.64,1.64c0,.3,0,.61,0,.91Z"/><path class="cls-1" d="M36.34,6.36a3.29,3.29,0,0,1,2.81,2.3c.11.34.75,4.42-2.76,4.9a22.75,22.75,0,0,1-4.69,1,26.61,26.61,0,0,0-4.23.93,6.79,6.79,0,0,0-3.8,3.24,4.64,4.64,0,0,0-.3,3.52,46,46,0,0,0,2.13,6.25,9.73,9.73,0,0,1,.69,4.92,3.17,3.17,0,0,1-4.71,2.34A2.88,2.88,0,0,1,20.08,33c0-2.68,0-5.37,0-8.06,0-2.5-.08-5-.06-7.51a6.22,6.22,0,0,1,.1-1.22,2.75,2.75,0,0,1,1.21-1.73c1.22-.81,2.54-1.47,3.81-2.19,2.17-1.24,4.33-2.5,6.51-3.73C32.75,8,33.84,7.27,35,6.71A2.77,2.77,0,0,1,36.34,6.36Z"/><path class="cls-2" d="M35.55,4.66a2,2,0,0,1-.76,1.08,35.18,35.18,0,0,1-4.08,2.44c-1.08.58-2,1.35-3.09,2-2.39,1.39-4.67,2.95-7.11,4.25a1.9,1.9,0,0,1-2-.06l-3.25-2.05c-1-.62-2.09-1.16-3.06-1.86A17,17,0,0,0,10,9C8.37,8.14,6.81,7.22,5.26,6.28A3.66,3.66,0,0,1,3.93,5.22,4,4,0,0,1,3.4,3.81,3.4,3.4,0,0,1,5.31.26,3,3,0,0,1,8,.38a8.25,8.25,0,0,1,2.63,2.17c1.52,1.75,2.84,3.68,4.52,5.3a8.21,8.21,0,0,0,3.17,2,3.58,3.58,0,0,0,2,0,9.37,9.37,0,0,0,4.81-3.2c1.48-1.59,2.69-3.41,4.21-5a11.1,11.1,0,0,1,1.16-1A2.6,2.6,0,0,1,33.39.29,4,4,0,0,1,35.55,4.66Z"/></g></g></svg>