<svg xmlns="http://www.w3.org/2000/svg" viewBox="0 0 150.21 135.74"><defs><style>.cls-1{fill:#3b654e;}</style></defs><g id="Layer_2" data-name="Layer 2"><g id="Layer_1-2" data-name="Layer 1"><g id="Shape"><path class="cls-1" d="M46.81,85.69a5.87,5.87,0,0,0-.9.51,1.27,1.27,0,0,0-.26,1.49c.23.78,1.47.78,2.28.37C49.33,87.35,48.1,85.5,46.81,85.69Z"/><path class="cls-1" d="M64.31,43.92a5.69,5.69,0,0,0,.84.57,1.48,1.48,0,0,0,1.57-.35c.68-.5.19-1.57-.53-2.12C65,41.09,63.62,42.88,64.31,43.92Z"/><path class="cls-1" d="M2.72,40.13a5.71,5.71,0,0,0,1-.25,1.29,1.29,0,0,0,.71-1.35c0-.81-1.17-1.14-2.07-1C.81,37.86,1.43,40,2.72,40.13Z"/><path class="cls-1" d="M150.21,57.42a5.9,5.9,0,0,0-.27-1,1.47,1.47,0,0,0-1.45-.65c-.87,0-1.2,1.12-1,2C147.82,59.24,150.05,58.64,150.21,57.42Z"/><path class="cls-1" d="M71.06,1.69a7.55,7.55,0,0,0-.74.69c-.38.51-.17,1,.12,1.51.42.71,1.62.43,2.31-.15C73.93,2.75,72.27,1.22,71.06,1.69Z"/><path class="cls-1" d="M113.14,21a4.36,4.36,0,0,0,.26,1c.27.56.85.65,1.44.66.87,0,1.22-1.09,1-1.94C115.55,19.19,113.31,19.76,113.14,21Z"/><path class="cls-1" d="M53.64,113.56a5.93,5.93,0,0,0-1-.42,1.44,1.44,0,0,0-1.47.6c-.57.61.11,1.58.92,2C53.54,116.45,54.51,114.47,53.64,113.56Z"/><path class="cls-1" d="M93.2,58.94a5,5,0,0,0-.75-.69,1.5,1.5,0,0,0-1.6.12c-.75.41-.44,1.53.18,2.17C92.11,61.64,93.71,60.06,93.2,58.94Z"/><path class="cls-1" d="M83.71,9.69a6.17,6.17,0,0,0-.09-1c-.18-.6-.73-.78-1.31-.89-.85-.15-1.39.9-1.36,1.77C81,11.09,83.32,10.86,83.71,9.69Z"/><path class="cls-1" d="M20.09,19.67a5.51,5.51,0,0,0-.06-1c-.16-.6-.71-.8-1.29-.92-.84-.16-1.41.87-1.4,1.74C17.36,21,19.68,20.83,20.09,19.67Z"/><path class="cls-1" d="M45.23,124.56a5.19,5.19,0,0,0,1-.07c.64-.14.85-.66,1-1.2.18-.8-.92-1.33-1.85-1.32C43.81,122,44,124.17,45.23,124.56Z"/><path class="cls-1" d="M111,64.91a6.36,6.36,0,0,0-.46-.88,1.48,1.48,0,0,0-1.56-.39c-.85.15-1,1.31-.6,2.11C109,67.12,111.08,66.14,111,64.91Z"/><path class="cls-1" d="M109.58,34.63a6.51,6.51,0,0,0-.53.85c-.22.58.12,1,.54,1.43.6.58,1.68,0,2.19-.71C112.64,34.94,110.61,33.88,109.58,34.63Z"/><path class="cls-1" d="M69.8,56.67a5.57,5.57,0,0,0,1,.42,1.45,1.45,0,0,0,1.47-.62c.56-.61-.13-1.58-.94-2C69.88,53.78,68.92,55.77,69.8,56.67Z"/><path class="cls-1" d="M118.62,55.81A5.69,5.69,0,0,0,118,55a1.51,1.51,0,0,0-1.6-.19c-.82.25-.76,1.42-.29,2.16C117,58.25,118.87,57,118.62,55.81Z"/><path class="cls-1" d="M132.63,55.88a5.67,5.67,0,0,0,.29-.94c.08-.61-.36-1-.87-1.27-.73-.43-1.64.35-2,1.17C129.57,56.25,131.81,56.84,132.63,55.88Z"/><path class="cls-1" d="M94.92,9a6,6,0,0,0-.84-.59,1.48,1.48,0,0,0-1.57.35c-.68.5-.2,1.57.52,2.12C94.26,11.86,95.6,10.08,94.92,9Z"/><path class="cls-1" d="M33.67,94.16a5.33,5.33,0,0,0,.16-1c0-.61-.49-.92-1-1.15-.79-.34-1.59.55-1.78,1.4C30.69,94.88,33,95.2,33.67,94.16Z"/><path class="cls-1" d="M128.41,88.66a6.12,6.12,0,0,0-1,.28,1.31,1.31,0,0,0-.65,1.38c0,.82,1.22,1.1,2.12.89C130.41,90.85,129.7,88.77,128.41,88.66Z"/><path class="cls-1" d="M40.12,74a5.5,5.5,0,0,0-1,.34,1.29,1.29,0,0,0-.56,1.42c.07.81,1.29,1,2.17.76C42.26,76,41.42,74,40.12,74Z"/><path class="cls-1" d="M9,26.71a7.06,7.06,0,0,0,1-.3,1.3,1.3,0,0,0,.62-1.4c0-.81-1.24-1.07-2.13-.84C7,24.56,7.74,26.62,9,26.71Z"/><path class="cls-1" d="M14,33.75a5.88,5.88,0,0,0-.33-.94,1.48,1.48,0,0,0-1.49-.58c-.86,0-1.14,1.17-.89,2C11.72,35.68,13.92,35,14,33.75Z"/><path class="cls-1" d="M108.78,45.26a5.92,5.92,0,0,0-.56-.83,1.5,1.5,0,0,0-1.59-.22c-.83.23-.81,1.39-.35,2.15C107.05,47.66,109,46.47,108.78,45.26Z"/><path class="cls-1" d="M3.18,75.23a6.45,6.45,0,0,0-.92.47,1.29,1.29,0,0,0-.34,1.48c.19.79,1.43.84,2.26.47C5.61,77,4.48,75.1,3.18,75.23Z"/><path class="cls-1" d="M21.76,32.12a6.94,6.94,0,0,0,.72.72,1.51,1.51,0,0,0,1.61-.07c.76-.38.5-1.52-.1-2.18C23,29.46,21.29,31,21.76,32.12Z"/><path class="cls-1" d="M57.18,86a7.24,7.24,0,0,0,1-.3,1.3,1.3,0,0,0,.63-1.39c0-.81-1.23-1.08-2.13-.86C55.15,83.83,55.88,85.91,57.18,86Z"/><path class="cls-1" d="M42.27,97.65A6.28,6.28,0,0,0,43,97a1.26,1.26,0,0,0,0-1.51c-.38-.73-1.6-.5-2.31,0C39.45,96.48,41,98.07,42.27,97.65Z"/><path class="cls-1" d="M4.22,54a5.55,5.55,0,0,0-.52-.85,1.47,1.47,0,0,0-1.58-.29c-.84.2-.87,1.36-.45,2.13C2.38,56.32,4.39,55.22,4.22,54Z"/><path class="cls-1" d="M25.94,97.86a6.57,6.57,0,0,0-.3-.94,1.47,1.47,0,0,0-1.47-.62c-.87,0-1.17,1.15-1,2C23.6,99.74,25.81,99.08,25.94,97.86Z"/><path class="cls-1" d="M95.89,130.29a7.19,7.19,0,0,0,1,.39,1.47,1.47,0,0,0,1.44-.67c.54-.64-.18-1.58-1-2C95.85,127.4,95,129.42,95.89,130.29Z"/><path class="cls-1" d="M146,78.64a5.1,5.1,0,0,0-.31.94c-.08.61.36,1,.86,1.28.73.43,1.65-.34,2-1.16C149.1,78.3,146.86,77.69,146,78.64Z"/><path class="cls-1" d="M105.67,100.93a8,8,0,0,0-.76-.68,1.5,1.5,0,0,0-1.61.16c-.74.42-.4,1.54.24,2.16C104.63,103.65,106.2,102,105.67,100.93Z"/><path class="cls-1" d="M104.33,93.83a5.72,5.72,0,0,0,.7-.74c.34-.52.1-1-.22-1.49-.47-.69-1.65-.33-2.3.29C101.4,93,103.17,94.37,104.33,93.83Z"/><path class="cls-1" d="M42.82,18.12a5.89,5.89,0,0,0-1,.16A1.31,1.31,0,0,0,41,19.57c-.1.81,1,1.24,2,1.14C44.51,20.54,44.09,18.39,42.82,18.12Z"/><path class="cls-1" d="M129.46,47.11a5.61,5.61,0,0,0,.91.49,1.46,1.46,0,0,0,1.52-.51c.61-.57,0-1.58-.77-2.05C129.79,44.24,128.66,46.15,129.46,47.11Z"/><path class="cls-1" d="M28,72.92a5.41,5.41,0,0,0-1,.39,1.28,1.28,0,0,0-.48,1.44c.12.81,1.34,1,2.21.65C30.26,74.88,29.3,72.89,28,72.92Z"/><path class="cls-1" d="M37.63,128.61a6,6,0,0,0-.68.76,1.29,1.29,0,0,0,.26,1.49c.49.67,1.66.29,2.29-.34C40.58,129.43,38.78,128.05,37.63,128.61Z"/><path class="cls-1" d="M105,78.4a6,6,0,0,0-.76-.67,1.48,1.48,0,0,0-1.6.16c-.74.42-.41,1.54.23,2.17C104,81.13,105.56,79.52,105,78.4Z"/><path class="cls-1" d="M131.12,99.32a5.19,5.19,0,0,0,.17,1c.21.58.78.72,1.37.79.86.09,1.32-1,1.22-1.86C133.7,97.74,131.41,98.12,131.12,99.32Z"/><path class="cls-1" d="M102.37,29.46a7,7,0,0,0,.84-.58,1.26,1.26,0,0,0,.13-1.51c-.3-.76-1.53-.66-2.3-.18C99.71,28,101.1,29.75,102.37,29.46Z"/><path class="cls-1" d="M126.36,63.48a4.91,4.91,0,0,0,.13-1c0-.62-.54-.9-1.09-1.12-.8-.31-1.56.61-1.71,1.47C123.42,64.33,125.73,64.55,126.36,63.48Z"/><path class="cls-1" d="M8.73,104.49a5.45,5.45,0,0,0,.86.55,1.49,1.49,0,0,0,1.56-.39c.66-.52.14-1.58-.6-2.1C9.29,101.65,8,103.47,8.73,104.49Z"/><path class="cls-1" d="M62,102.29a5.07,5.07,0,0,0,.24-1c0-.62-.43-1-1-1.22-.76-.4-1.62.44-1.88,1.28C58.93,102.83,61.2,103.29,62,102.29Z"/><path class="cls-1" d="M37.63,54.41a5.08,5.08,0,0,0-.45-.88,1.45,1.45,0,0,0-1.55-.4c-.85.14-1,1.29-.62,2.1C35.62,56.6,37.71,55.64,37.63,54.41Z"/><path class="cls-1" d="M31,17.87a6.49,6.49,0,0,0-1.05,0c-.65.09-.9.58-1.08,1.12-.26.77.79,1.4,1.71,1.47C32.16,20.55,32.19,18.36,31,17.87Z"/><path class="cls-1" d="M46.16,63.57a6.6,6.6,0,0,0,.82.61,1.49,1.49,0,0,0,1.58-.29c.7-.47.26-1.56-.43-2.13C46.94,60.77,45.52,62.5,46.16,63.57Z"/><path class="cls-1" d="M77.25,109.71a6,6,0,0,0-.92-.46,1.46,1.46,0,0,0-1.5.54c-.6.59,0,1.59.83,2C77,112.6,78.08,110.66,77.25,109.71Z"/><path class="cls-1" d="M92.84,103.43a4.53,4.53,0,0,0,.44-.89c.17-.6-.22-1-.67-1.37-.66-.53-1.68.13-2.11.9C89.77,103.39,91.89,104.27,92.84,103.43Z"/><path class="cls-1" d="M32.34,124.26a6.14,6.14,0,0,0,.91-.49,1.3,1.3,0,0,0,.3-1.49c-.22-.78-1.46-.8-2.28-.4C29.86,122.55,31.05,124.43,32.34,124.26Z"/><path class="cls-1" d="M71.57,100.12a5.57,5.57,0,0,0,.13,1c.2.59.75.75,1.34.83.86.12,1.36-.94,1.28-1.81C74.2,98.62,71.9,98.93,71.57,100.12Z"/><path class="cls-1" d="M56,2.38a6.17,6.17,0,0,0,1,.37,1.45,1.45,0,0,0,1.43-.69c.53-.64-.21-1.57-1-1.94C55.89-.51,55,1.52,56,2.38Z"/><path class="cls-1" d="M26.56,11.05a6.25,6.25,0,0,0,.71.73,1.49,1.49,0,0,0,1.6,0c.78-.37.54-1.51-.05-2.18C27.81,8.41,26.12,9.9,26.56,11.05Z"/><path class="cls-1" d="M119.07,119.91a5.65,5.65,0,0,0,.12-1c0-.62-.54-.91-1.09-1.12-.8-.31-1.56.61-1.71,1.47C116.12,120.76,118.43,121,119.07,119.91Z"/><path class="cls-1" d="M32.36,107.55a5.42,5.42,0,0,0,.52-.85c.23-.58-.11-1-.53-1.43-.6-.59-1.68,0-2.19.7C29.3,107.22,31.32,108.29,32.36,107.55Z"/><path class="cls-1" d="M23.76,115a6.94,6.94,0,0,0-.9.5,1.26,1.26,0,0,0-.27,1.49c.22.79,1.46.79,2.28.38C26.27,116.69,25.05,114.83,23.76,115Z"/><path class="cls-1" d="M113.25,104.8a5.41,5.41,0,0,0-.18,1c0,.62.49.93,1,1.17.78.35,1.59-.53,1.79-1.38C116.24,104.1,113.94,103.76,113.25,104.8Z"/><path class="cls-1" d="M101.89,56.77a7,7,0,0,0,1,.23,1.42,1.42,0,0,0,1.31-.88c.42-.71-.46-1.53-1.35-1.78C101.35,53.92,100.84,56.05,101.89,56.77Z"/><path class="cls-1" d="M89.62,50.2a5.68,5.68,0,0,0,.61-.8c.28-.55,0-1-.38-1.47-.54-.63-1.67-.17-2.25.51C86.61,49.6,88.51,50.85,89.62,50.2Z"/><path class="cls-1" d="M83.17,20.42a6.36,6.36,0,0,0-.59-.81A1.51,1.51,0,0,0,81,19.45c-.81.26-.73,1.42-.25,2.16C81.55,22.88,83.45,21.61,83.17,20.42Z"/><path class="cls-1" d="M51.77,96.34a6.37,6.37,0,0,0,1,.31,1.43,1.43,0,0,0,1.39-.76c.49-.67-.31-1.56-1.17-1.88C51.51,93.45,50.79,95.53,51.77,96.34Z"/><path class="cls-1" d="M141.65,51.42a6.43,6.43,0,0,0,1,.29A1.44,1.44,0,0,0,144,50.9c.47-.68-.36-1.55-1.23-1.84C141.29,48.55,140.64,50.64,141.65,51.42Z"/><path class="cls-1" d="M84.21,98.37a6.17,6.17,0,0,0-.17-1c-.22-.58-.78-.72-1.38-.78-.86-.09-1.31,1-1.21,1.85C81.63,100,83.92,99.57,84.21,98.37Z"/><path class="cls-1" d="M105.84,16.77a5.18,5.18,0,0,0-.39-.92,1.46,1.46,0,0,0-1.52-.49c-.86.08-1.06,1.23-.76,2.05C103.68,18.82,105.82,18,105.84,16.77Z"/><path class="cls-1" d="M97.77,108.24a5.89,5.89,0,0,0-.71.73c-.35.52-.12,1,.2,1.5.45.69,1.64.35,2.3-.26C100.68,109.16,99,107.71,97.77,108.24Z"/><path class="cls-1" d="M130.4,68.94a8.07,8.07,0,0,0-1,.26,1.3,1.3,0,0,0-.69,1.36c0,.82,1.18,1.13,2.09,1C132.34,71.19,131.7,69.1,130.4,68.94Z"/><path class="cls-1" d="M59.18,30.86a5.93,5.93,0,0,0,1,.42,1.45,1.45,0,0,0,1.47-.61c.57-.61-.12-1.58-.93-2C59.27,28,58.3,30,59.18,30.86Z"/><path class="cls-1" d="M18.11,54.82a6,6,0,0,0-1,.37,1.29,1.29,0,0,0-.53,1.43c.09.81,1.32,1,2.19.71C20.3,56.85,19.41,54.84,18.11,54.82Z"/><path class="cls-1" d="M67.79,79a7.18,7.18,0,0,0-.79-.64,1.48,1.48,0,0,0-1.59.22c-.72.45-.34,1.55.33,2.15C66.88,81.77,68.38,80.1,67.79,79Z"/><path class="cls-1" d="M81.68,129.84a6.08,6.08,0,0,0-.71-.72,1.47,1.47,0,0,0-1.6,0c-.78.36-.54,1.51,0,2.18C80.42,132.48,82.12,131,81.68,129.84Z"/><path class="cls-1" d="M58.3,63.17a6,6,0,0,0,1,.26,1.41,1.41,0,0,0,1.33-.85c.45-.69-.41-1.53-1.29-1.8C57.84,60.31,57.26,62.42,58.3,63.17Z"/><path class="cls-1" d="M85,110.74a5.44,5.44,0,0,0,.66.76,1.47,1.47,0,0,0,1.61,0c.8-.32.62-1.47.07-2.17C86.4,108.17,84.62,109.57,85,110.74Z"/><path class="cls-1" d="M12.55,94.49a5.39,5.39,0,0,0,.47.88,1.48,1.48,0,0,0,1.56.36c.85-.16.94-1.32.56-2.12C14.5,92.25,12.44,93.27,12.55,94.49Z"/><path class="cls-1" d="M92.77,17.81a5.53,5.53,0,0,0-.88.52,1.26,1.26,0,0,0-.24,1.49c.24.78,1.48.76,2.29.34C95.32,19.43,94.06,17.6,92.77,17.81Z"/><path class="cls-1" d="M67.8,20.42a5.92,5.92,0,0,0,.56.83,1.48,1.48,0,0,0,1.59.23c.83-.23.81-1.39.36-2.15C69.54,18,67.58,19.21,67.8,20.42Z"/><path class="cls-1" d="M127.1,36.86a6.38,6.38,0,0,0,.92.48,1.45,1.45,0,0,0,1.51-.51c.61-.57,0-1.58-.78-2C127.41,34,126.3,35.9,127.1,36.86Z"/><path class="cls-1" d="M54.91,130.69a5.63,5.63,0,0,0-.26,1c0,.61.4,1,.92,1.24.75.4,1.63-.41,1.9-1.24C58,130.22,55.69,129.71,54.91,130.69Z"/><path class="cls-1" d="M67.47,67a6,6,0,0,0-.59.81,1.29,1.29,0,0,0,.42,1.46c.56.63,1.68.14,2.24-.56C70.5,67.55,68.56,66.34,67.47,67Z"/><path class="cls-1" d="M126.52,114.91a7.1,7.1,0,0,0-1-.26,1.43,1.43,0,0,0-1.35.83c-.45.7.4,1.54,1.28,1.82C127,117.78,127.55,115.67,126.52,114.91Z"/><path class="cls-1" d="M128,78.42A6.07,6.07,0,0,0,127,78a1.46,1.46,0,0,0-1.5.56c-.59.59,0,1.58.85,2C127.76,81.3,128.81,79.35,128,78.42Z"/><path class="cls-1" d="M124.21,27.29a6.26,6.26,0,0,0-1-.28,1.41,1.41,0,0,0-1.35.82c-.46.69.38,1.55,1.25,1.83C124.61,30.15,125.23,28.05,124.21,27.29Z"/><path class="cls-1" d="M111.39,88.7a5.26,5.26,0,0,0,1-.22,1.33,1.33,0,0,0,.75-1.34c0-.81-1.14-1.17-2-1C109.55,86.38,110.1,88.5,111.39,88.7Z"/><path class="cls-1" d="M16.89,74.43a5.91,5.91,0,0,0,.93.45,1.46,1.46,0,0,0,1.5-.56c.59-.6-.06-1.59-.86-2C17.09,71.54,16.05,73.49,16.89,74.43Z"/><path class="cls-1" d="M24.63,49.91a6.81,6.81,0,0,0,1,.24A1.41,1.41,0,0,0,27,49.29c.44-.7-.43-1.53-1.31-1.79C24.15,47.05,23.59,49.17,24.63,49.91Z"/><path class="cls-1" d="M90.46,118.16a7.85,7.85,0,0,0-.89.52,1.27,1.27,0,0,0-.24,1.5c.24.78,1.48.76,2.28.34C93,119.79,91.74,118,90.46,118.16Z"/><path class="cls-1" d="M98.92,70.45a5.85,5.85,0,0,0,.91.48,1.46,1.46,0,0,0,1.51-.51c.62-.57,0-1.58-.78-2C99.23,67.57,98.11,69.49,98.92,70.45Z"/><path class="cls-1" d="M109.05,112.1a7.09,7.09,0,0,0-1,.35,1.3,1.3,0,0,0-.54,1.43c.08.81,1.3,1,2.18.74C111.22,114.15,110.35,112.13,109.05,112.1Z"/><path class="cls-1" d="M7.76,45.57a5.6,5.6,0,0,0-.94.44,1.3,1.3,0,0,0-.39,1.47c.17.8,1.41.88,2.25.53C10.13,47.41,9.06,45.47,7.76,45.57Z"/><path class="cls-1" d="M68.54,11.07a6.51,6.51,0,0,0,.74.7,1.48,1.48,0,0,0,1.6-.1c.76-.39.47-1.52-.14-2.17C69.69,8.38,68.05,9.93,68.54,11.07Z"/><path class="cls-1" d="M55.42,39.36a5.3,5.3,0,0,0,0-1c-.12-.61-.65-.83-1.22-1-.84-.22-1.47.78-1.52,1.64C52.61,40.53,54.93,40.5,55.42,39.36Z"/><path class="cls-1" d="M82.11,63.81a4.24,4.24,0,0,0,0-1c-.13-.61-.68-.81-1.25-.95-.85-.19-1.44.83-1.45,1.7C79.35,65.07,81.67,65,82.11,63.81Z"/><path class="cls-1" d="M38.88,5.58a5.1,5.1,0,0,0-.31.94c-.09.61.35,1,.85,1.28.73.44,1.65-.33,2-1.15C41.94,5.25,39.71,4.63,38.88,5.58Z"/><path class="cls-1" d="M77.87,80.59a5.65,5.65,0,0,0-.12,1c0,.62.55.9,1.1,1.11.8.31,1.55-.62,1.7-1.48C80.81,79.72,78.49,79.51,77.87,80.59Z"/><path class="cls-1" d="M87.16,78.83a4.87,4.87,0,0,0,.6.8,1.47,1.47,0,0,0,1.6.15c.82-.27.73-1.43.24-2.16C88.75,76.36,86.87,77.64,87.16,78.83Z"/><path class="cls-1" d="M57.29,50.5a6.46,6.46,0,0,0-.87.54,1.27,1.27,0,0,0-.21,1.5c.27.78,1.51.73,2.3.28C59.88,52.07,58.57,50.26,57.29,50.5Z"/><path class="cls-1" d="M81.63,121a5.16,5.16,0,0,0-.38.92c-.12.6.28,1,.76,1.33.69.49,1.67-.23,2-1C84.7,120.88,82.52,120.12,81.63,121Z"/><path class="cls-1" d="M75,27.14a6.38,6.38,0,0,0-.92-.48,1.46,1.46,0,0,0-1.51.51c-.61.57,0,1.59.78,2C74.63,30,75.75,28.11,75,27.14Z"/><path class="cls-1" d="M90.43,71.35a5,5,0,0,0,.54-.84c.23-.58-.1-1-.51-1.44-.59-.59-1.68,0-2.2.68C87.38,71,89.39,72.09,90.43,71.35Z"/><path class="cls-1" d="M37.52,85.63a7.52,7.52,0,0,0,1-.14c.62-.19.79-.72.87-1.28.11-.8-1-1.25-2-1.18C35.9,83.17,36.26,85.32,37.52,85.63Z"/><path class="cls-1" d="M80.39,42a6.35,6.35,0,0,0,.79.65,1.47,1.47,0,0,0,1.59-.21c.73-.44.35-1.55-.31-2.16C81.33,39.27,79.81,40.93,80.39,42Z"/><path class="cls-1" d="M46.17,50a5.5,5.5,0,0,0,.69-.74,1.28,1.28,0,0,0-.21-1.5c-.47-.68-1.65-.33-2.3.29C43.24,49.11,45,50.54,46.17,50Z"/><path class="cls-1" d="M75,73.83a6.17,6.17,0,0,0,1,.37,1.47,1.47,0,0,0,1.44-.69c.53-.64-.21-1.57-1-1.94C74.93,70.94,74.08,73,75,73.83Z"/><path class="cls-1" d="M68.19,130.9a6.2,6.2,0,0,0,.92.47,1.47,1.47,0,0,0,1.51-.54c.6-.58,0-1.58-.82-2C68.45,128,67.37,130,68.19,130.9Z"/><path class="cls-1" d="M36.7,67.62a6.61,6.61,0,0,0,.94.43,1.46,1.46,0,0,0,1.47-.61c.58-.6-.1-1.58-.91-2C36.81,64.73,35.82,66.71,36.7,67.62Z"/><path class="cls-1" d="M43.65,36.86a5.63,5.63,0,0,0-1,.26A1.31,1.31,0,0,0,42,38.48c0,.82,1.19,1.13,2.09,1C45.59,39.11,45,37,43.65,36.86Z"/><path class="cls-1" d="M49.45,76.43a4.91,4.91,0,0,0,.36.92,1.45,1.45,0,0,0,1.5.54c.87-.07,1.1-1.21.83-2C51.67,74.43,49.5,75.21,49.45,76.43Z"/><path class="cls-1" d="M138.56,86.09a4.74,4.74,0,0,0-.28.94c-.07.62.38,1,.89,1.26.74.42,1.64-.38,1.93-1.2C141.6,85.67,139.35,85.12,138.56,86.09Z"/><path class="cls-1" d="M74.23,119a5.1,5.1,0,0,0-.52-.85,1.49,1.49,0,0,0-1.58-.3c-.84.19-.87,1.36-.46,2.13C72.38,121.28,74.39,120.18,74.23,119Z"/><path class="cls-1" d="M119.34,96a4.9,4.9,0,0,0,0-1c-.09-.61-.61-.86-1.18-1-.83-.25-1.5.73-1.58,1.59C116.48,97.07,118.81,97.11,119.34,96Z"/><path class="cls-1" d="M135.7,75.5a5.81,5.81,0,0,0-.63.78,1.27,1.27,0,0,0,.33,1.48c.51.66,1.67.23,2.27-.43C138.69,76.19,136.83,74.89,135.7,75.5Z"/><path class="cls-1" d="M46.2,132.54a6.7,6.7,0,0,0-.79.65,1.28,1.28,0,0,0,0,1.51c.38.73,1.59.53,2.32,0C49,133.77,47.43,132.14,46.2,132.54Z"/><path class="cls-1" d="M142.36,98.39a5.75,5.75,0,0,0,.39-.91c.14-.6-.26-1-.73-1.34-.68-.5-1.67.19-2.06,1C139.28,98.47,141.44,99.27,142.36,98.39Z"/><path class="cls-1" d="M56,19a6.06,6.06,0,0,0,.1,1c.18.59.73.77,1.32.87.85.15,1.38-.9,1.34-1.77C58.66,17.54,56.35,17.78,56,19Z"/><path class="cls-1" d="M96,42.25a6.53,6.53,0,0,0-.85.57A1.29,1.29,0,0,0,95,44.33c.3.76,1.54.66,2.31.19C98.61,43.7,97.22,42,96,42.25Z"/><path class="cls-1" d="M138,64.52a6.5,6.5,0,0,0,.74-.69,1.27,1.27,0,0,0-.13-1.51c-.42-.71-1.62-.42-2.31.16C135.08,63.48,136.75,65,138,64.52Z"/><path class="cls-1" d="M24.3,85.57a5.07,5.07,0,0,0,1-.23A1.31,1.31,0,0,0,26.05,84c0-.81-1.15-1.15-2.06-1C22.43,83.28,23,85.39,24.3,85.57Z"/><path class="cls-1" d="M100.5,119.41a7.19,7.19,0,0,0,1-.29,1.3,1.3,0,0,0,.64-1.39c0-.82-1.23-1.09-2.13-.87C98.47,117.24,99.2,119.31,100.5,119.41Z"/><path class="cls-1" d="M64.11,109.8a5,5,0,0,0-.83-.6,1.47,1.47,0,0,0-1.57.3c-.7.49-.24,1.57.46,2.14C63.37,112.61,64.77,110.86,64.11,109.8Z"/><path class="cls-1" d="M19.67,42.35a5.84,5.84,0,0,0-.8-.62,1.5,1.5,0,0,0-1.59.26c-.71.46-.3,1.56.39,2.14C18.84,45.14,20.29,43.43,19.67,42.35Z"/><path class="cls-1" d="M60.4,123.9a6.78,6.78,0,0,0,1-.1c.63-.18.81-.7.91-1.25.14-.8-1-1.29-1.91-1.24C58.86,121.4,59.15,123.57,60.4,123.9Z"/><path class="cls-1" d="M78.32,50a5.79,5.79,0,0,0-.78.65c-.42.48-.25,1,0,1.51.37.73,1.59.53,2.31,0C81.11,51.18,79.56,49.55,78.32,50Z"/><path class="cls-1" d="M64.9,91.28a6.28,6.28,0,0,0-.86-.55,1.5,1.5,0,0,0-1.56.4c-.66.53-.13,1.58.61,2.1C64.35,94.13,65.63,92.3,64.9,91.28Z"/><path class="cls-1" d="M145.82,69.22a7.58,7.58,0,0,0,.92.48,1.47,1.47,0,0,0,1.51-.53c.61-.57,0-1.58-.8-2C146.11,66.34,145,68.26,145.82,69.22Z"/><path class="cls-1" d="M87.14,87.28a5.55,5.55,0,0,0-.78-.65,1.51,1.51,0,0,0-1.6.2c-.73.44-.35,1.55.31,2.16C86.2,90,87.71,88.38,87.14,87.28Z"/><path class="cls-1" d="M121.26,45.24a6.14,6.14,0,0,0-.75-.68,1.48,1.48,0,0,0-1.6.14c-.75.41-.43,1.53.2,2.17C120.19,48,121.79,46.36,121.26,45.24Z"/><path class="cls-1" d="M47.49,9a6.21,6.21,0,0,0-.48.88c-.19.59.17,1,.61,1.4.63.55,1.68-.06,2.15-.82C50.56,9.13,48.48,8.16,47.49,9Z"/><path class="cls-1" d="M108.16,127.45a7.3,7.3,0,0,0,1,0c.64-.12.88-.62,1-1.16.23-.78-.83-1.37-1.76-1.41C106.91,124.81,107,127,108.16,127.45Z"/><path class="cls-1" d="M46.19,104.39a5.53,5.53,0,0,0-1-.39,1.44,1.44,0,0,0-1.45.65c-.55.63.17,1.58,1,2C46.2,107.28,47.1,105.27,46.19,104.39Z"/><path class="cls-1" d="M94.5,34.5a6.5,6.5,0,0,0,.82-.6,1.26,1.26,0,0,0,.07-1.51c-.33-.76-1.56-.61-2.31-.11C91.78,33.14,93.24,34.84,94.5,34.5Z"/><path class="cls-1" d="M94.12,83.78a4.85,4.85,0,0,0-.29.94c-.07.62.38,1,.88,1.27.74.42,1.64-.37,1.94-1.19C97.17,83.39,94.92,82.82,94.12,83.78Z"/><path class="cls-1" d="M35.79,29.47a4.75,4.75,0,0,0-.13-1c-.19-.59-.75-.75-1.34-.84-.86-.12-1.35.95-1.29,1.81C33.15,31,35.45,30.66,35.79,29.47Z"/><path class="cls-1" d="M117.09,70.32a5.93,5.93,0,0,0,.35.93,1.48,1.48,0,0,0,1.51.54c.86-.06,1.1-1.2.83-2C119.33,68.33,117.15,69.1,117.09,70.32Z"/><path class="cls-1" d="M123.36,105.92a6.16,6.16,0,0,0,.82.6,1.49,1.49,0,0,0,1.58-.29c.7-.48.26-1.57-.44-2.14C124.12,103.12,122.71,104.85,123.36,105.92Z"/><path class="cls-1" d="M71.92,34.82a6.84,6.84,0,0,0-1,.38,1.29,1.29,0,0,0-.49,1.44c.11.81,1.33,1,2.2.67C74.16,36.8,73.23,34.8,71.92,34.82Z"/><path class="cls-1" d="M140.55,38.78a5.74,5.74,0,0,0-.51-.86,1.47,1.47,0,0,0-1.57-.31c-.84.19-.89,1.35-.48,2.13C138.69,41.08,140.71,40,140.55,38.78Z"/><path class="cls-1" d="M6.6,85.89a6,6,0,0,0,.26,1c.28.56.85.65,1.45.66.87,0,1.21-1.1,1-2C9,84.09,6.77,84.67,6.6,85.89Z"/><path class="cls-1" d="M29.38,61.56a5.22,5.22,0,0,0-.67-.75,1.49,1.49,0,0,0-1.61,0c-.79.34-.59,1.48,0,2.18C28,64.16,29.78,62.73,29.38,61.56Z"/><path class="cls-1" d="M60.64,9.47a5,5,0,0,0,.23-1c0-.61-.43-.94-.95-1.21-.76-.39-1.62.45-1.87,1.29C57.62,10,59.89,10.48,60.64,9.47Z"/><path class="cls-1" d="M87.23,133.3a6.21,6.21,0,0,0-.42.9c-.15.6.24,1,.71,1.36.67.51,1.67-.17,2.08-.95C90.31,133.28,88.16,132.44,87.23,133.3Z"/><path class="cls-1" d="M58.74,73.15a5.27,5.27,0,0,0,.95-.39,1.28,1.28,0,0,0,.48-1.44c-.11-.81-1.34-1-2.21-.66C56.48,71.19,57.43,73.18,58.74,73.15Z"/><path class="cls-1" d="M33.59,39.37a5.41,5.41,0,0,0-1,.2c-.61.22-.74.76-.79,1.32-.06.81,1.11,1.19,2,1.06C35.37,41.73,34.87,39.6,33.59,39.37Z"/><path class="cls-1" d="M85.14,30.16a6.1,6.1,0,0,0-1-.19c-.66,0-1,.43-1.27.93-.39.72.53,1.5,1.43,1.72C85.81,33,86.23,30.83,85.14,30.16Z"/><path class="cls-1" d="M134.47,108.4a7.28,7.28,0,0,0-1-.17,1.41,1.41,0,0,0-1.24,1c-.38.74.56,1.5,1.46,1.69C135.2,111.21,135.58,109.06,134.47,108.4Z"/><path class="cls-1" d="M117.2,81.51a5.68,5.68,0,0,0,1-.4,1.28,1.28,0,0,0,.46-1.45c-.12-.8-1.35-.94-2.21-.63C114.93,79.56,115.9,81.55,117.2,81.51Z"/><path class="cls-1" d="M73,90.29a6.78,6.78,0,0,0,1-.1A1.34,1.34,0,0,0,75,89c.15-.8-1-1.29-1.89-1.25C71.5,87.78,71.77,89.94,73,90.29Z"/><path class="cls-1" d="M40.89,113a7.48,7.48,0,0,0-1,0c-.65.1-.9.6-1.07,1.13-.24.78.81,1.39,1.74,1.45C42.09,115.68,42.09,113.49,40.89,113Z"/><path class="cls-1" d="M94.33,92.79a7,7,0,0,0-1-.07c-.65.07-.93.55-1.13,1.08-.29.77.72,1.43,1.64,1.54C95.38,95.51,95.5,93.33,94.33,92.79Z"/><path class="cls-1" d="M48.85,26.79a6,6,0,0,0-1.05-.07c-.65.07-.93.55-1.13,1.08-.29.77.73,1.43,1.65,1.53C49.89,29.51,50,27.33,48.85,26.79Z"/><path class="cls-1" d="M18.59,106.31a5.49,5.49,0,0,0-.88.53,1.27,1.27,0,0,0-.22,1.5c.25.77,1.49.74,2.29.31C21.15,107.9,19.87,106.08,18.59,106.31Z"/><path class="cls-1" d="M14.68,65.67a5.65,5.65,0,0,0,.81-.61,1.24,1.24,0,0,0,.06-1.51c-.33-.75-1.56-.6-2.31-.09C12,64.33,13.42,66,14.68,65.67Z"/><path class="cls-1" d="M2.81,65.51a5.4,5.4,0,0,0-.44-.9,1.48,1.48,0,0,0-1.54-.43c-.86.12-1,1.28-.66,2.09C.75,67.66,2.85,66.73,2.81,65.51Z"/></g></g></g></svg>