<svg xmlns="http://www.w3.org/2000/svg" xmlns:xlink="http://www.w3.org/1999/xlink" viewBox="0 0 275.46 335.66"><defs><style>.cls-1{fill:none;}.cls-2{clip-path:url(#clip-path);}.cls-3{fill:#2d3d3d;}.cls-4{fill:url(#linear-gradient);}.cls-5{fill:url(#linear-gradient-2);}.cls-6{fill:#fbffe1;}</style><clipPath id="clip-path" transform="translate(0 -0.44)"><rect class="cls-1" x="54.65" width="220.81" height="335.94"/></clipPath><linearGradient id="linear-gradient" x1="100.74" y1="-88.14" x2="243.1" y2="129.45" gradientUnits="userSpaceOnUse"><stop offset="0" stop-color="#9dca96"/><stop offset="1" stop-color="#3b654e"/></linearGradient><linearGradient id="linear-gradient-2" x1="187.14" y1="299.4" x2="246.92" y2="80.79" xlink:href="#linear-gradient"/></defs><g id="Layer_2" data-name="Layer 2"><g id="Layer_1-2" data-name="Layer 1"><g id="Shape_3" data-name="Shape 3"><g class="cls-2"><path class="cls-3" d="M275.46,336.1V173.82c-33.7-29.38-81.3-35.29-125.77-9.21C94.19,197.16,42.55,267.81,57.9,336.1Z" transform="translate(0 -0.44)"/><path class="cls-4" d="M275.46,6c-23.13-6.5-46.37-9.68-67,4.43-17.71,12.14-17.9,40.8-39.29,45.38-12.08,2.59-16.2-2.94-25.4,7.31-10.79,12-5.73,29.81,5.17,40.34,17.66,17.07,52.23,15.9,63.73,40.35,14.43,30.66-14.83,21.69-22,40.23-8.72,22.64,50.44,31.87,41.36,66.82-4.09,15.74-11,22.29,2.61,37.82,9.84,11.25,25.41,19.22,40.74,21.5Z" transform="translate(0 -0.44)"/><path class="cls-5" d="M171.13,336.1a34.53,34.53,0,0,1,1.15-26.86c3.31-6.72,8.3-12,13.12-17.1,8.93-9.45,17.35-18.37,13.06-34.54-2-7.47-5.63-13.76-9.15-19.84-6.71-11.57-13-22.5-5.64-39.06,5.89-13.16,16.52-18.11,27.79-23.35,7.68-3.57,15.62-7.26,21.79-13.8,7.93-8.39,8.46-19.62,7.94-29.5-.86-16.15-.6-16.3,12.86-24,1.74-1,3.69-2.11,5.88-3.4,2.75-1.62,5.67-3.09,8.49-4.5,2.35-1.18,4.72-2.38,7-3.68V95c-2.44,1.39-5,2.68-7.6,4-2.83,1.43-5.77,2.9-8.56,4.54-2.18,1.29-4.13,2.41-5.86,3.4-13.57,7.78-14.38,8.24-13.49,25.15.52,9.62,0,20.54-7.6,28.6-6,6.36-13.84,10-21.41,13.52-11,5.1-22.32,10.38-28.39,24-7.67,17.15-1.18,28.34,5.69,40.19,3.48,6,7.08,12.23,9,19.54,4.12,15.5-3.7,23.78-12.76,33.37-4.88,5.17-9.93,10.52-13.33,17.4a35.91,35.91,0,0,0-1.35,27.41Z" transform="translate(0 -0.44)"/></g></g><g id="Shape"><path class="cls-6" d="M46.81,186a5.87,5.87,0,0,0-.9.51,1.27,1.27,0,0,0-.26,1.49c.23.79,1.47.78,2.28.37C49.33,187.66,48.1,185.81,46.81,186Z" transform="translate(0 -0.44)"/><path class="cls-6" d="M64.31,144.23a5.69,5.69,0,0,0,.84.57,1.48,1.48,0,0,0,1.57-.35c.68-.5.19-1.57-.53-2.11C65,141.4,63.62,143.19,64.31,144.23Z" transform="translate(0 -0.44)"/><path class="cls-6" d="M2.72,140.44a6.88,6.88,0,0,0,1-.24,1.31,1.31,0,0,0,.71-1.36c0-.81-1.17-1.14-2.07-1C.81,138.17,1.43,140.28,2.72,140.44Z" transform="translate(0 -0.44)"/><path class="cls-6" d="M150.21,157.73a5.47,5.47,0,0,0-.27-.94,1.46,1.46,0,0,0-1.45-.66c-.87,0-1.2,1.12-1,2C147.82,159.55,150.05,159,150.21,157.73Z" transform="translate(0 -0.44)"/><path class="cls-6" d="M71.06,102a6.48,6.48,0,0,0-.74.7c-.38.5-.17,1,.12,1.5.42.71,1.62.43,2.31-.15C73.93,103.06,72.27,101.53,71.06,102Z" transform="translate(0 -0.44)"/><path class="cls-6" d="M113.14,121.29a4.42,4.42,0,0,0,.26.95c.27.56.85.65,1.44.67.87,0,1.22-1.1,1-2C115.55,119.5,113.31,120.07,113.14,121.29Z" transform="translate(0 -0.44)"/><path class="cls-6" d="M53.64,213.87a5.93,5.93,0,0,0-1-.42,1.44,1.44,0,0,0-1.47.6c-.57.62.11,1.59.92,2C53.54,216.76,54.51,214.78,53.64,213.87Z" transform="translate(0 -0.44)"/><path class="cls-6" d="M93.2,159.25a5,5,0,0,0-.75-.69,1.5,1.5,0,0,0-1.6.12c-.75.41-.44,1.53.18,2.17C92.11,162,93.71,160.37,93.2,159.25Z" transform="translate(0 -0.44)"/><path class="cls-6" d="M83.71,110a6.19,6.19,0,0,0-.09-1c-.18-.6-.73-.78-1.31-.89-.85-.15-1.39.9-1.36,1.77C81,111.4,83.32,111.18,83.71,110Z" transform="translate(0 -0.44)"/><path class="cls-6" d="M20.09,120a5.51,5.51,0,0,0-.06-1c-.16-.6-.71-.8-1.29-.91-.84-.17-1.41.86-1.4,1.73C17.36,121.31,19.68,121.14,20.09,120Z" transform="translate(0 -0.44)"/><path class="cls-6" d="M45.23,224.87a6.19,6.19,0,0,0,1-.06,1.36,1.36,0,0,0,1-1.21c.18-.8-.92-1.33-1.85-1.32C43.81,222.31,44,224.48,45.23,224.87Z" transform="translate(0 -0.44)"/><path class="cls-6" d="M111,165.23a6,6,0,0,0-.46-.89A1.48,1.48,0,0,0,109,164c-.85.14-1,1.3-.6,2.1C109,167.43,111.08,166.45,111,165.23Z" transform="translate(0 -0.44)"/><path class="cls-6" d="M109.58,134.94a6.51,6.51,0,0,0-.53.85c-.22.58.12,1,.54,1.43.6.58,1.68,0,2.19-.71C112.64,135.26,110.61,134.19,109.58,134.94Z" transform="translate(0 -0.44)"/><path class="cls-6" d="M69.8,157a5.57,5.57,0,0,0,1,.42,1.45,1.45,0,0,0,1.47-.62c.56-.61-.13-1.58-.94-2C69.88,154.09,68.92,156.08,69.8,157Z" transform="translate(0 -0.44)"/><path class="cls-6" d="M118.62,156.12a5.69,5.69,0,0,0-.58-.82,1.49,1.49,0,0,0-1.6-.18c-.82.24-.76,1.41-.29,2.15C117,158.56,118.87,157.32,118.62,156.12Z" transform="translate(0 -0.44)"/><path class="cls-6" d="M132.63,156.2a6,6,0,0,0,.29-.95c.08-.61-.36-1-.87-1.27-.73-.43-1.64.36-2,1.17C129.57,156.56,131.81,157.15,132.63,156.2Z" transform="translate(0 -0.44)"/><path class="cls-6" d="M94.92,109.35a5.13,5.13,0,0,0-.84-.58,1.46,1.46,0,0,0-1.57.34c-.68.5-.2,1.57.52,2.12C94.26,112.17,95.6,110.39,94.92,109.35Z" transform="translate(0 -0.44)"/><path class="cls-6" d="M33.67,194.47a5.38,5.38,0,0,0,.16-1c0-.62-.49-.93-1-1.16-.79-.34-1.59.55-1.78,1.4C30.69,195.2,33,195.51,33.67,194.47Z" transform="translate(0 -0.44)"/><path class="cls-6" d="M128.41,189a6.12,6.12,0,0,0-1,.28,1.31,1.31,0,0,0-.65,1.38c0,.82,1.22,1.1,2.12.89C130.41,191.16,129.7,189.08,128.41,189Z" transform="translate(0 -0.44)"/><path class="cls-6" d="M40.12,174.28a5.5,5.5,0,0,0-1,.34,1.29,1.29,0,0,0-.56,1.42c.07.81,1.29,1,2.17.76C42.26,176.35,41.42,174.32,40.12,174.28Z" transform="translate(0 -0.44)"/><path class="cls-6" d="M9,127a7.06,7.06,0,0,0,1-.3,1.3,1.3,0,0,0,.62-1.4c0-.81-1.24-1.07-2.13-.84C7,124.87,7.74,126.93,9,127Z" transform="translate(0 -0.44)"/><path class="cls-6" d="M14,134.06a6.26,6.26,0,0,0-.33-.94,1.48,1.48,0,0,0-1.49-.58c-.86,0-1.14,1.17-.89,2C11.72,136,13.92,135.28,14,134.06Z" transform="translate(0 -0.44)"/><path class="cls-6" d="M108.78,145.58a5.53,5.53,0,0,0-.56-.84,1.5,1.5,0,0,0-1.59-.22c-.83.23-.81,1.39-.35,2.15C107.05,148,109,146.78,108.78,145.58Z" transform="translate(0 -0.44)"/><path class="cls-6" d="M3.18,175.54a6.45,6.45,0,0,0-.92.47,1.29,1.29,0,0,0-.34,1.48c.19.79,1.43.84,2.26.47C5.61,177.32,4.48,175.41,3.18,175.54Z" transform="translate(0 -0.44)"/><path class="cls-6" d="M21.76,132.43a6.07,6.07,0,0,0,.72.72,1.51,1.51,0,0,0,1.61-.07c.76-.38.5-1.52-.1-2.18C23,129.77,21.29,131.29,21.76,132.43Z" transform="translate(0 -0.44)"/><path class="cls-6" d="M57.18,186.32a6.08,6.08,0,0,0,1-.3,1.3,1.3,0,0,0,.63-1.39c0-.81-1.23-1.08-2.13-.86C55.15,184.14,55.88,186.22,57.18,186.32Z" transform="translate(0 -0.44)"/><path class="cls-6" d="M42.27,198a6.28,6.28,0,0,0,.77-.66,1.26,1.26,0,0,0,0-1.51c-.38-.73-1.6-.5-2.31.05C39.45,196.79,41,198.38,42.27,198Z" transform="translate(0 -0.44)"/><path class="cls-6" d="M4.22,154.31a5.55,5.55,0,0,0-.52-.85,1.47,1.47,0,0,0-1.58-.29c-.84.2-.87,1.36-.45,2.14C2.38,156.64,4.39,155.53,4.22,154.31Z" transform="translate(0 -0.44)"/><path class="cls-6" d="M25.94,198.17a6.57,6.57,0,0,0-.3-.94,1.44,1.44,0,0,0-1.47-.61c-.87,0-1.17,1.14-1,2C23.6,200.05,25.81,199.39,25.94,198.17Z" transform="translate(0 -0.44)"/><path class="cls-6" d="M95.89,230.6a7.19,7.19,0,0,0,1,.39,1.47,1.47,0,0,0,1.44-.67c.54-.64-.18-1.58-1-2C95.85,227.71,95,229.73,95.89,230.6Z" transform="translate(0 -0.44)"/><path class="cls-6" d="M146,179a5.1,5.1,0,0,0-.31.94c-.08.61.36,1,.86,1.28.73.44,1.65-.34,2-1.16C149.1,178.61,146.86,178,146,179Z" transform="translate(0 -0.44)"/><path class="cls-6" d="M105.67,201.24a8,8,0,0,0-.76-.68,1.5,1.5,0,0,0-1.61.16c-.74.42-.4,1.54.24,2.16C104.63,204,106.2,202.35,105.67,201.24Z" transform="translate(0 -0.44)"/><path class="cls-6" d="M104.33,194.14a5.72,5.72,0,0,0,.7-.74c.34-.52.1-1-.22-1.49-.47-.69-1.65-.33-2.3.29C101.4,193.26,103.17,194.68,104.33,194.14Z" transform="translate(0 -0.44)"/><path class="cls-6" d="M42.82,118.43a7,7,0,0,0-1,.16,1.32,1.32,0,0,0-.83,1.29c-.1.81,1,1.24,2,1.14C44.51,120.85,44.09,118.7,42.82,118.43Z" transform="translate(0 -0.44)"/><path class="cls-6" d="M129.46,147.42a5.61,5.61,0,0,0,.91.49,1.46,1.46,0,0,0,1.52-.51c.61-.57,0-1.58-.77-2.05C129.79,144.55,128.66,146.46,129.46,147.42Z" transform="translate(0 -0.44)"/><path class="cls-6" d="M28,173.23a5.41,5.41,0,0,0-1,.39,1.28,1.28,0,0,0-.48,1.44c.12.81,1.34,1,2.21.65C30.26,175.19,29.3,173.2,28,173.23Z" transform="translate(0 -0.44)"/><path class="cls-6" d="M37.63,228.92a6,6,0,0,0-.68.76,1.29,1.29,0,0,0,.26,1.49c.49.67,1.66.29,2.29-.34C40.58,229.74,38.78,228.36,37.63,228.92Z" transform="translate(0 -0.44)"/><path class="cls-6" d="M105,178.72a5.42,5.42,0,0,0-.76-.68,1.48,1.48,0,0,0-1.6.16c-.74.42-.41,1.54.23,2.17C104,181.44,105.56,179.83,105,178.72Z" transform="translate(0 -0.44)"/><path class="cls-6" d="M131.12,199.63a5.19,5.19,0,0,0,.17,1c.21.58.78.72,1.37.79.86.09,1.32-1,1.22-1.86C133.7,198.05,131.41,198.43,131.12,199.63Z" transform="translate(0 -0.44)"/><path class="cls-6" d="M102.37,129.77a6,6,0,0,0,.84-.58,1.26,1.26,0,0,0,.13-1.51c-.3-.76-1.53-.66-2.3-.18C99.71,128.31,101.1,130.06,102.37,129.77Z" transform="translate(0 -0.44)"/><path class="cls-6" d="M126.36,163.79a4.91,4.91,0,0,0,.13-1c0-.62-.54-.9-1.09-1.12-.8-.31-1.56.61-1.71,1.47C123.42,164.64,125.73,164.87,126.36,163.79Z" transform="translate(0 -0.44)"/><path class="cls-6" d="M8.73,204.8a5.45,5.45,0,0,0,.86.55,1.48,1.48,0,0,0,1.56-.39c.66-.52.14-1.58-.6-2.1C9.29,202,8,203.78,8.73,204.8Z" transform="translate(0 -0.44)"/><path class="cls-6" d="M62,202.61a5.34,5.34,0,0,0,.24-1c0-.62-.43-1-1-1.22-.76-.39-1.62.44-1.88,1.28C58.93,203.14,61.2,203.6,62,202.61Z" transform="translate(0 -0.44)"/><path class="cls-6" d="M37.63,154.72a5.08,5.08,0,0,0-.45-.88,1.45,1.45,0,0,0-1.55-.4c-.85.14-1,1.29-.62,2.1C35.62,156.91,37.71,156,37.63,154.72Z" transform="translate(0 -0.44)"/><path class="cls-6" d="M31,118.18a6.49,6.49,0,0,0-1.05,0c-.65.09-.9.58-1.08,1.12-.26.78.79,1.4,1.71,1.47C32.16,120.86,32.19,118.67,31,118.18Z" transform="translate(0 -0.44)"/><path class="cls-6" d="M46.16,163.88a5.05,5.05,0,0,0,.82.61,1.51,1.51,0,0,0,1.58-.28c.7-.48.26-1.57-.43-2.14C46.94,161.08,45.52,162.81,46.16,163.88Z" transform="translate(0 -0.44)"/><path class="cls-6" d="M77.25,210a6,6,0,0,0-.92-.46,1.45,1.45,0,0,0-1.5.55c-.6.58,0,1.58.83,2C77,212.91,78.08,211,77.25,210Z" transform="translate(0 -0.44)"/><path class="cls-6" d="M92.84,203.74a4.53,4.53,0,0,0,.44-.89c.17-.6-.22-1-.67-1.37-.66-.53-1.68.13-2.11.9C89.77,203.7,91.89,204.58,92.84,203.74Z" transform="translate(0 -0.44)"/><path class="cls-6" d="M32.34,224.57a6.14,6.14,0,0,0,.91-.49,1.28,1.28,0,0,0,.3-1.48c-.22-.79-1.46-.81-2.28-.41C29.86,222.87,31.05,224.74,32.34,224.57Z" transform="translate(0 -0.44)"/><path class="cls-6" d="M71.57,200.43a5.57,5.57,0,0,0,.13,1c.2.59.75.75,1.34.83.86.12,1.36-.94,1.28-1.81C74.2,198.93,71.9,199.24,71.57,200.43Z" transform="translate(0 -0.44)"/><path class="cls-6" d="M56,102.69a6.17,6.17,0,0,0,1,.37,1.45,1.45,0,0,0,1.43-.69c.53-.64-.21-1.57-1-1.94C55.89,99.8,55,101.83,56,102.69Z" transform="translate(0 -0.44)"/><path class="cls-6" d="M26.56,111.36a5.55,5.55,0,0,0,.71.73,1.49,1.49,0,0,0,1.6,0c.78-.37.54-1.51-.05-2.18C27.81,108.72,26.12,110.21,26.56,111.36Z" transform="translate(0 -0.44)"/><path class="cls-6" d="M119.07,220.22a5.65,5.65,0,0,0,.12-1c0-.62-.54-.9-1.09-1.12-.8-.31-1.56.61-1.71,1.47C116.12,221.07,118.43,221.29,119.07,220.22Z" transform="translate(0 -0.44)"/><path class="cls-6" d="M32.36,207.86a5.42,5.42,0,0,0,.52-.85c.23-.58-.11-1-.53-1.43-.6-.58-1.68,0-2.19.71C29.3,207.53,31.32,208.61,32.36,207.86Z" transform="translate(0 -0.44)"/><path class="cls-6" d="M23.76,215.33a6.94,6.94,0,0,0-.9.5,1.26,1.26,0,0,0-.27,1.49c.22.79,1.46.79,2.28.38C26.27,217,25.05,215.14,23.76,215.33Z" transform="translate(0 -0.44)"/><path class="cls-6" d="M113.25,205.11a5.34,5.34,0,0,0-.18,1c0,.61.49.92,1,1.16.78.35,1.59-.53,1.79-1.38C116.24,204.41,113.94,204.07,113.25,205.11Z" transform="translate(0 -0.44)"/><path class="cls-6" d="M101.89,157.08a7,7,0,0,0,1,.23,1.42,1.42,0,0,0,1.31-.88c.42-.71-.46-1.53-1.35-1.77C101.35,154.23,100.84,156.36,101.89,157.08Z" transform="translate(0 -0.44)"/><path class="cls-6" d="M89.62,150.51a5.68,5.68,0,0,0,.61-.8c.28-.55,0-1-.38-1.47-.54-.63-1.67-.17-2.25.51C86.61,149.91,88.51,151.16,89.62,150.51Z" transform="translate(0 -0.44)"/><path class="cls-6" d="M83.17,120.73a6.36,6.36,0,0,0-.59-.81,1.51,1.51,0,0,0-1.61-.16c-.81.26-.73,1.42-.25,2.16C81.55,123.19,83.45,121.93,83.17,120.73Z" transform="translate(0 -0.44)"/><path class="cls-6" d="M51.77,196.65a7.9,7.9,0,0,0,1,.32,1.45,1.45,0,0,0,1.39-.77c.49-.67-.31-1.56-1.17-1.88C51.51,193.76,50.79,195.84,51.77,196.65Z" transform="translate(0 -0.44)"/><path class="cls-6" d="M141.65,151.73a6.43,6.43,0,0,0,1,.29,1.44,1.44,0,0,0,1.36-.81c.47-.68-.36-1.55-1.23-1.84C141.29,148.86,140.64,151,141.65,151.73Z" transform="translate(0 -0.44)"/><path class="cls-6" d="M84.21,198.68a6.17,6.17,0,0,0-.17-1c-.22-.58-.78-.72-1.38-.78-.86-.09-1.31,1-1.21,1.85C81.63,200.26,83.92,199.88,84.21,198.68Z" transform="translate(0 -0.44)"/><path class="cls-6" d="M105.84,117.08a5.18,5.18,0,0,0-.39-.92,1.46,1.46,0,0,0-1.52-.49c-.86.08-1.06,1.23-.76,2C103.68,119.14,105.82,118.3,105.84,117.08Z" transform="translate(0 -0.44)"/><path class="cls-6" d="M97.77,208.55a5.89,5.89,0,0,0-.71.73c-.35.52-.12,1,.2,1.5.45.69,1.64.35,2.3-.26C100.68,209.47,99,208,97.77,208.55Z" transform="translate(0 -0.44)"/><path class="cls-6" d="M130.4,169.25a8.07,8.07,0,0,0-1,.26,1.31,1.31,0,0,0-.69,1.37c0,.81,1.18,1.12,2.09.94C132.34,171.51,131.7,169.41,130.4,169.25Z" transform="translate(0 -0.44)"/><path class="cls-6" d="M59.18,131.17a7.21,7.21,0,0,0,1,.43A1.47,1.47,0,0,0,61.6,131c.57-.61-.12-1.58-.93-2C59.27,128.28,58.3,130.27,59.18,131.17Z" transform="translate(0 -0.44)"/><path class="cls-6" d="M18.11,155.13a6,6,0,0,0-1,.37,1.29,1.29,0,0,0-.53,1.43c.09.81,1.32,1,2.19.71C20.3,157.16,19.41,155.15,18.11,155.13Z" transform="translate(0 -0.44)"/><path class="cls-6" d="M67.79,179.32a6.35,6.35,0,0,0-.79-.65,1.48,1.48,0,0,0-1.59.22c-.72.45-.34,1.55.33,2.16C66.88,182.08,68.38,180.41,67.79,179.32Z" transform="translate(0 -0.44)"/><path class="cls-6" d="M81.68,230.16a5.55,5.55,0,0,0-.71-.73,1.47,1.47,0,0,0-1.6,0c-.78.37-.54,1.51,0,2.18C80.42,232.79,82.12,231.31,81.68,230.16Z" transform="translate(0 -0.44)"/><path class="cls-6" d="M58.3,163.48a6,6,0,0,0,1,.26,1.41,1.41,0,0,0,1.33-.85c.45-.69-.41-1.53-1.29-1.8C57.84,160.62,57.26,162.74,58.3,163.48Z" transform="translate(0 -0.44)"/><path class="cls-6" d="M85,211.05a5.44,5.44,0,0,0,.66.76,1.49,1.49,0,0,0,1.61.05c.8-.33.62-1.48.07-2.18C86.4,208.48,84.62,209.88,85,211.05Z" transform="translate(0 -0.44)"/><path class="cls-6" d="M12.55,194.8a5.39,5.39,0,0,0,.47.88,1.48,1.48,0,0,0,1.56.36c.85-.16.94-1.32.56-2.11C14.5,192.56,12.44,193.58,12.55,194.8Z" transform="translate(0 -0.44)"/><path class="cls-6" d="M92.77,118.12a5.53,5.53,0,0,0-.88.52,1.27,1.27,0,0,0-.24,1.5c.24.78,1.48.75,2.29.33C95.32,119.74,94.06,117.91,92.77,118.12Z" transform="translate(0 -0.44)"/><path class="cls-6" d="M67.8,120.73a5.92,5.92,0,0,0,.56.83,1.48,1.48,0,0,0,1.59.23c.83-.23.81-1.39.36-2.15C69.54,118.34,67.58,119.52,67.8,120.73Z" transform="translate(0 -0.44)"/><path class="cls-6" d="M127.1,137.17a6.38,6.38,0,0,0,.92.48,1.45,1.45,0,0,0,1.51-.51c.61-.57,0-1.58-.78-2C127.41,134.29,126.3,136.21,127.1,137.17Z" transform="translate(0 -0.44)"/><path class="cls-6" d="M54.91,231a5.32,5.32,0,0,0-.26,1c0,.61.4,1,.92,1.24.75.41,1.63-.41,1.9-1.24C58,230.54,55.69,230,54.91,231Z" transform="translate(0 -0.44)"/><path class="cls-6" d="M67.47,167.33a6.65,6.65,0,0,0-.59.81,1.31,1.31,0,0,0,.42,1.47c.56.62,1.68.13,2.24-.57C70.5,167.86,68.56,166.65,67.47,167.33Z" transform="translate(0 -0.44)"/><path class="cls-6" d="M126.52,215.23a6.1,6.1,0,0,0-1-.27,1.45,1.45,0,0,0-1.35.83c-.45.7.4,1.54,1.28,1.82C127,218.09,127.55,216,126.52,215.23Z" transform="translate(0 -0.44)"/><path class="cls-6" d="M128,178.73a6.07,6.07,0,0,0-.93-.46,1.46,1.46,0,0,0-1.5.56c-.59.59,0,1.58.85,2C127.76,181.61,128.81,179.66,128,178.73Z" transform="translate(0 -0.44)"/><path class="cls-6" d="M124.21,127.6a6.26,6.26,0,0,0-1-.28,1.41,1.41,0,0,0-1.35.82c-.46.69.38,1.55,1.25,1.83C124.61,130.46,125.23,128.36,124.21,127.6Z" transform="translate(0 -0.44)"/><path class="cls-6" d="M111.39,189a5.26,5.26,0,0,0,1-.22,1.33,1.33,0,0,0,.75-1.34c0-.81-1.14-1.17-2-1C109.55,186.69,110.1,188.81,111.39,189Z" transform="translate(0 -0.44)"/><path class="cls-6" d="M16.89,174.74a5.91,5.91,0,0,0,.93.45,1.46,1.46,0,0,0,1.5-.56c.59-.59-.06-1.58-.86-2C17.09,171.85,16.05,173.8,16.89,174.74Z" transform="translate(0 -0.44)"/><path class="cls-6" d="M24.63,150.22a6.81,6.81,0,0,0,1,.24A1.41,1.41,0,0,0,27,149.6c.44-.7-.43-1.53-1.31-1.79C24.15,147.36,23.59,149.48,24.63,150.22Z" transform="translate(0 -0.44)"/><path class="cls-6" d="M90.46,218.47a7.85,7.85,0,0,0-.89.52,1.27,1.27,0,0,0-.24,1.5c.24.78,1.48.76,2.28.34C93,220.1,91.74,218.27,90.46,218.47Z" transform="translate(0 -0.44)"/><path class="cls-6" d="M98.92,170.76a5.85,5.85,0,0,0,.91.48,1.44,1.44,0,0,0,1.51-.51c.62-.57,0-1.58-.78-2C99.23,167.88,98.11,169.8,98.92,170.76Z" transform="translate(0 -0.44)"/><path class="cls-6" d="M109.05,212.41a7.09,7.09,0,0,0-1,.35,1.3,1.3,0,0,0-.54,1.43c.08.81,1.3,1,2.18.74C111.22,214.46,110.35,212.44,109.05,212.41Z" transform="translate(0 -0.44)"/><path class="cls-6" d="M7.76,145.88a5.6,5.6,0,0,0-.94.44,1.3,1.3,0,0,0-.39,1.47c.17.8,1.41.88,2.25.53C10.13,147.72,9.06,145.78,7.76,145.88Z" transform="translate(0 -0.44)"/><path class="cls-6" d="M68.54,111.38a6.51,6.51,0,0,0,.74.7,1.48,1.48,0,0,0,1.6-.1c.76-.39.47-1.52-.14-2.17C69.69,108.69,68.05,110.24,68.54,111.38Z" transform="translate(0 -0.44)"/><path class="cls-6" d="M55.42,139.67a5.3,5.3,0,0,0,0-1c-.12-.61-.65-.83-1.22-1-.84-.22-1.47.78-1.52,1.64C52.61,140.84,54.93,140.81,55.42,139.67Z" transform="translate(0 -0.44)"/><path class="cls-6" d="M82.11,164.12a4.24,4.24,0,0,0,0-1c-.13-.61-.68-.81-1.25-.94-.85-.19-1.44.82-1.45,1.69C79.35,165.38,81.67,165.27,82.11,164.12Z" transform="translate(0 -0.44)"/><path class="cls-6" d="M38.88,105.89a5.1,5.1,0,0,0-.31.94c-.09.61.35,1,.85,1.28.73.44,1.65-.33,2-1.15C41.94,105.56,39.71,104.94,38.88,105.89Z" transform="translate(0 -0.44)"/><path class="cls-6" d="M77.87,180.9a5.65,5.65,0,0,0-.12,1c0,.62.55.9,1.1,1.11.8.31,1.55-.62,1.7-1.48C80.81,180,78.49,179.82,77.87,180.9Z" transform="translate(0 -0.44)"/><path class="cls-6" d="M87.16,179.14a5.49,5.49,0,0,0,.6.81,1.49,1.49,0,0,0,1.6.14c.82-.27.73-1.43.24-2.16C88.75,176.67,86.87,178,87.16,179.14Z" transform="translate(0 -0.44)"/><path class="cls-6" d="M57.29,150.81a6.46,6.46,0,0,0-.87.54,1.28,1.28,0,0,0-.21,1.51c.27.77,1.51.72,2.3.28C59.88,152.38,58.57,150.57,57.29,150.81Z" transform="translate(0 -0.44)"/><path class="cls-6" d="M81.63,221.32a5.16,5.16,0,0,0-.38.92c-.12.6.28,1,.76,1.33.69.49,1.67-.22,2-1C84.7,221.19,82.52,220.43,81.63,221.32Z" transform="translate(0 -0.44)"/><path class="cls-6" d="M75,127.46A5.65,5.65,0,0,0,74,127a1.48,1.48,0,0,0-1.51.51c-.61.58,0,1.59.78,2C74.63,130.33,75.75,128.42,75,127.46Z" transform="translate(0 -0.44)"/><path class="cls-6" d="M90.43,171.66a4.62,4.62,0,0,0,.54-.84c.23-.58-.1-1-.51-1.44-.59-.59-1.68,0-2.2.68C87.38,171.3,89.39,172.4,90.43,171.66Z" transform="translate(0 -0.44)"/><path class="cls-6" d="M37.52,185.94a7.52,7.52,0,0,0,1-.14c.62-.19.79-.72.87-1.28.11-.8-1-1.25-2-1.18C35.9,183.48,36.26,185.64,37.52,185.94Z" transform="translate(0 -0.44)"/><path class="cls-6" d="M80.39,142.34a6.35,6.35,0,0,0,.79.65,1.47,1.47,0,0,0,1.59-.21c.73-.44.35-1.55-.31-2.15C81.33,139.58,79.81,141.24,80.39,142.34Z" transform="translate(0 -0.44)"/><path class="cls-6" d="M46.17,150.31a5,5,0,0,0,.69-.74c.34-.52.11-1-.21-1.5-.47-.68-1.65-.33-2.3.29C43.24,149.42,45,150.85,46.17,150.31Z" transform="translate(0 -0.44)"/><path class="cls-6" d="M75,174.14a6.17,6.17,0,0,0,1,.37,1.47,1.47,0,0,0,1.44-.69c.53-.64-.21-1.57-1-1.94C74.93,171.25,74.08,173.28,75,174.14Z" transform="translate(0 -0.44)"/><path class="cls-6" d="M68.19,231.21a6.2,6.2,0,0,0,.92.47,1.46,1.46,0,0,0,1.51-.54c.6-.58,0-1.58-.82-2C68.45,228.33,67.37,230.26,68.19,231.21Z" transform="translate(0 -0.44)"/><path class="cls-6" d="M36.7,167.93a6.61,6.61,0,0,0,.94.43,1.46,1.46,0,0,0,1.47-.61c.58-.6-.1-1.58-.91-2C36.81,165,35.82,167,36.7,167.93Z" transform="translate(0 -0.44)"/><path class="cls-6" d="M43.65,137.17a5.63,5.63,0,0,0-1,.26,1.31,1.31,0,0,0-.69,1.36c0,.82,1.19,1.13,2.09,1C45.59,139.42,45,137.32,43.65,137.17Z" transform="translate(0 -0.44)"/><path class="cls-6" d="M49.45,176.74a4.91,4.91,0,0,0,.36.92,1.45,1.45,0,0,0,1.5.54c.87-.07,1.1-1.21.83-2C51.67,174.74,49.5,175.52,49.45,176.74Z" transform="translate(0 -0.44)"/><path class="cls-6" d="M138.56,186.4a4.8,4.8,0,0,0-.28.95c-.07.61.38,1,.89,1.25.74.42,1.64-.38,1.93-1.2C141.6,186,139.35,185.43,138.56,186.4Z" transform="translate(0 -0.44)"/><path class="cls-6" d="M74.23,219.27a5.55,5.55,0,0,0-.52-.85,1.49,1.49,0,0,0-1.58-.3c-.84.19-.87,1.36-.46,2.13C72.38,221.59,74.39,220.49,74.23,219.27Z" transform="translate(0 -0.44)"/><path class="cls-6" d="M119.34,196.31a4.9,4.9,0,0,0,0-1c-.09-.61-.61-.86-1.18-1-.83-.25-1.5.73-1.58,1.59C116.48,197.38,118.81,197.43,119.34,196.31Z" transform="translate(0 -0.44)"/><path class="cls-6" d="M135.7,175.82a5.81,5.81,0,0,0-.63.77,1.29,1.29,0,0,0,.33,1.49c.51.65,1.67.22,2.27-.44C138.69,176.5,136.83,175.2,135.7,175.82Z" transform="translate(0 -0.44)"/><path class="cls-6" d="M46.2,232.85a6.7,6.7,0,0,0-.79.65,1.28,1.28,0,0,0,0,1.51c.38.73,1.59.53,2.32,0C49,234.08,47.43,232.45,46.2,232.85Z" transform="translate(0 -0.44)"/><path class="cls-6" d="M142.36,198.7a5.75,5.75,0,0,0,.39-.91c.14-.6-.26-1-.73-1.34-.68-.5-1.67.19-2.06,1C139.28,198.78,141.44,199.58,142.36,198.7Z" transform="translate(0 -0.44)"/><path class="cls-6" d="M56,119.26a6.06,6.06,0,0,0,.1,1c.18.6.73.77,1.32.87.85.15,1.38-.9,1.34-1.77C58.66,117.85,56.35,118.09,56,119.26Z" transform="translate(0 -0.44)"/><path class="cls-6" d="M96,142.56a5.62,5.62,0,0,0-.85.58,1.28,1.28,0,0,0-.13,1.5c.3.76,1.54.66,2.31.19C98.61,144,97.22,142.26,96,142.56Z" transform="translate(0 -0.44)"/><path class="cls-6" d="M138,164.83a6.5,6.5,0,0,0,.74-.69,1.27,1.27,0,0,0-.13-1.51c-.42-.71-1.62-.42-2.31.16C135.08,163.79,136.75,165.31,138,164.83Z" transform="translate(0 -0.44)"/><path class="cls-6" d="M24.3,185.88a5.07,5.07,0,0,0,1-.23,1.3,1.3,0,0,0,.74-1.34c0-.82-1.15-1.16-2.06-1C22.43,183.59,23,185.7,24.3,185.88Z" transform="translate(0 -0.44)"/><path class="cls-6" d="M100.5,219.72a7.19,7.19,0,0,0,1-.29,1.3,1.3,0,0,0,.64-1.39c0-.81-1.23-1.09-2.13-.87C98.47,217.55,99.2,219.62,100.5,219.72Z" transform="translate(0 -0.44)"/><path class="cls-6" d="M64.11,210.11a5,5,0,0,0-.83-.6,1.47,1.47,0,0,0-1.57.3c-.7.49-.24,1.57.46,2.14C63.37,212.92,64.77,211.17,64.11,210.11Z" transform="translate(0 -0.44)"/><path class="cls-6" d="M19.67,142.66a5.84,5.84,0,0,0-.8-.62,1.5,1.5,0,0,0-1.59.26c-.71.46-.3,1.56.39,2.14C18.84,145.45,20.29,143.74,19.67,142.66Z" transform="translate(0 -0.44)"/><path class="cls-6" d="M60.4,224.21a6.78,6.78,0,0,0,1-.1c.63-.18.81-.7.91-1.25.14-.8-1-1.29-1.91-1.24C58.86,221.71,59.15,223.88,60.4,224.21Z" transform="translate(0 -0.44)"/><path class="cls-6" d="M78.32,150.26a5.79,5.79,0,0,0-.78.65,1.25,1.25,0,0,0,0,1.51c.37.74,1.59.53,2.31,0C81.11,151.49,79.56,149.87,78.32,150.26Z" transform="translate(0 -0.44)"/><path class="cls-6" d="M64.9,191.6a5.45,5.45,0,0,0-.86-.55,1.49,1.49,0,0,0-1.56.39c-.66.53-.13,1.58.61,2.11C64.35,194.44,65.63,192.61,64.9,191.6Z" transform="translate(0 -0.44)"/><path class="cls-6" d="M145.82,169.53a7.58,7.58,0,0,0,.92.48,1.47,1.47,0,0,0,1.51-.53c.61-.57,0-1.58-.8-2C146.11,166.65,145,168.57,145.82,169.53Z" transform="translate(0 -0.44)"/><path class="cls-6" d="M87.14,187.59a6.35,6.35,0,0,0-.78-.65,1.51,1.51,0,0,0-1.6.2c-.73.44-.35,1.55.31,2.16C86.2,190.35,87.71,188.69,87.14,187.59Z" transform="translate(0 -0.44)"/><path class="cls-6" d="M121.26,145.55a6.14,6.14,0,0,0-.75-.68,1.5,1.5,0,0,0-1.6.14c-.75.41-.43,1.53.2,2.17C120.19,148.27,121.79,146.68,121.26,145.55Z" transform="translate(0 -0.44)"/><path class="cls-6" d="M47.49,109.27a5.67,5.67,0,0,0-.48.87c-.19.59.17,1,.61,1.4.63.55,1.68-.06,2.15-.81C50.56,109.44,48.48,108.47,47.49,109.27Z" transform="translate(0 -0.44)"/><path class="cls-6" d="M108.16,227.76a7.3,7.3,0,0,0,1,0c.64-.11.88-.62,1-1.15.23-.79-.83-1.38-1.76-1.42C106.91,225.12,107,227.3,108.16,227.76Z" transform="translate(0 -0.44)"/><path class="cls-6" d="M46.19,204.7a6.46,6.46,0,0,0-1-.39,1.44,1.44,0,0,0-1.45.65c-.55.63.17,1.58,1,2C46.2,207.59,47.1,205.58,46.19,204.7Z" transform="translate(0 -0.44)"/><path class="cls-6" d="M94.5,134.82a6.46,6.46,0,0,0,.82-.61,1.26,1.26,0,0,0,.07-1.51c-.33-.75-1.56-.61-2.31-.11C91.78,133.45,93.24,135.15,94.5,134.82Z" transform="translate(0 -0.44)"/><path class="cls-6" d="M94.12,184.09a4.92,4.92,0,0,0-.29.95c-.07.61.38,1,.88,1.26.74.42,1.64-.37,1.94-1.19C97.17,183.7,94.92,183.13,94.12,184.09Z" transform="translate(0 -0.44)"/><path class="cls-6" d="M35.79,129.78a4.85,4.85,0,0,0-.13-1c-.19-.59-.75-.75-1.34-.84-.86-.12-1.35.95-1.29,1.82C33.15,131.27,35.45,131,35.79,129.78Z" transform="translate(0 -0.44)"/><path class="cls-6" d="M117.09,170.63a5.93,5.93,0,0,0,.35.93,1.48,1.48,0,0,0,1.51.54c.86-.06,1.1-1.2.83-2C119.33,168.64,117.15,169.41,117.09,170.63Z" transform="translate(0 -0.44)"/><path class="cls-6" d="M123.36,206.23a7.44,7.44,0,0,0,.82.61,1.49,1.49,0,0,0,1.58-.3c.7-.48.26-1.56-.44-2.14C124.12,203.43,122.71,205.17,123.36,206.23Z" transform="translate(0 -0.44)"/><path class="cls-6" d="M71.92,135.13a6.84,6.84,0,0,0-1,.38,1.29,1.29,0,0,0-.49,1.44c.11.81,1.33,1,2.2.67C74.16,137.11,73.23,135.11,71.92,135.13Z" transform="translate(0 -0.44)"/><path class="cls-6" d="M140.55,139.09a5.74,5.74,0,0,0-.51-.86,1.47,1.47,0,0,0-1.57-.31c-.84.19-.89,1.35-.48,2.13C138.69,141.39,140.71,140.31,140.55,139.09Z" transform="translate(0 -0.44)"/><path class="cls-6" d="M6.6,186.2a6,6,0,0,0,.26,1c.28.56.85.65,1.45.66.87,0,1.21-1.1,1-1.95C9,184.4,6.77,185,6.6,186.2Z" transform="translate(0 -0.44)"/><path class="cls-6" d="M29.38,161.87a5.83,5.83,0,0,0-.67-.75,1.49,1.49,0,0,0-1.61,0c-.79.34-.59,1.49,0,2.18C28,164.47,29.78,163,29.38,161.87Z" transform="translate(0 -0.44)"/><path class="cls-6" d="M60.64,109.78a4.86,4.86,0,0,0,.23-1c0-.61-.43-.94-.95-1.21-.76-.39-1.62.45-1.87,1.29C57.62,110.33,59.89,110.79,60.64,109.78Z" transform="translate(0 -0.44)"/><path class="cls-6" d="M87.23,233.61a6.21,6.21,0,0,0-.42.9c-.15.6.24,1,.71,1.36.67.51,1.67-.17,2.08-1C90.31,233.59,88.16,232.75,87.23,233.61Z" transform="translate(0 -0.44)"/><path class="cls-6" d="M58.74,173.46a5.27,5.27,0,0,0,.95-.39,1.28,1.28,0,0,0,.48-1.44c-.11-.81-1.34-1-2.21-.65C56.48,171.5,57.43,173.49,58.74,173.46Z" transform="translate(0 -0.44)"/><path class="cls-6" d="M33.59,139.68a5.41,5.41,0,0,0-1,.2c-.61.22-.74.76-.79,1.32-.06.81,1.11,1.19,2,1.06C35.37,142,34.87,139.91,33.59,139.68Z" transform="translate(0 -0.44)"/><path class="cls-6" d="M85.14,130.47a6.1,6.1,0,0,0-1-.19c-.66,0-1,.43-1.27.93-.39.72.53,1.5,1.43,1.72C85.81,133.29,86.23,131.14,85.14,130.47Z" transform="translate(0 -0.44)"/><path class="cls-6" d="M134.47,208.72a6.07,6.07,0,0,0-1-.17,1.39,1.39,0,0,0-1.24.95c-.38.74.56,1.5,1.46,1.69C135.2,211.53,135.58,209.37,134.47,208.72Z" transform="translate(0 -0.44)"/><path class="cls-6" d="M117.2,181.82a5.68,5.68,0,0,0,1-.4,1.27,1.27,0,0,0,.46-1.44c-.12-.81-1.35-.95-2.21-.64C114.93,179.87,115.9,181.86,117.2,181.82Z" transform="translate(0 -0.44)"/><path class="cls-6" d="M73,190.6a6.78,6.78,0,0,0,1-.1,1.34,1.34,0,0,0,.92-1.24c.15-.8-1-1.29-1.89-1.25C71.5,188.09,71.77,190.26,73,190.6Z" transform="translate(0 -0.44)"/><path class="cls-6" d="M40.89,213.32a7.48,7.48,0,0,0-1,0c-.65.1-.9.6-1.07,1.13-.24.78.81,1.4,1.74,1.45C42.09,216,42.09,213.8,40.89,213.32Z" transform="translate(0 -0.44)"/><path class="cls-6" d="M94.33,193.1a5.71,5.71,0,0,0-1-.06c-.65.06-.93.54-1.13,1.07-.29.77.72,1.43,1.64,1.54C95.38,195.82,95.5,193.64,94.33,193.1Z" transform="translate(0 -0.44)"/><path class="cls-6" d="M48.85,127.1A7.15,7.15,0,0,0,47.8,127c-.65.07-.93.55-1.13,1.08-.29.77.73,1.43,1.65,1.53C49.89,129.82,50,127.64,48.85,127.1Z" transform="translate(0 -0.44)"/><path class="cls-6" d="M18.59,206.62a5.49,5.49,0,0,0-.88.53,1.27,1.27,0,0,0-.22,1.5c.25.78,1.49.74,2.29.31C21.15,208.21,19.87,206.4,18.59,206.62Z" transform="translate(0 -0.44)"/><path class="cls-6" d="M14.68,166a5.65,5.65,0,0,0,.81-.61,1.24,1.24,0,0,0,.06-1.51c-.33-.75-1.56-.6-2.31-.09C12,164.64,13.42,166.33,14.68,166Z" transform="translate(0 -0.44)"/><path class="cls-6" d="M2.81,165.82a5.4,5.4,0,0,0-.44-.9,1.48,1.48,0,0,0-1.54-.43c-.86.12-1,1.28-.66,2.09C.75,168,2.85,167,2.81,165.82Z" transform="translate(0 -0.44)"/></g></g></g></svg>